<?xml version="1.0" encoding="UTF-8"?>
<svg xmlns="http://www.w3.org/2000/svg" xmlns:xlink="http://www.w3.org/1999/xlink" width="274pt" height="202.9pt" viewBox="0 0 274 202.9" version="1.1">
<defs>
<clipPath id="clip1">
  <path d="M 238 66 L 240 66 L 240 202.898438 L 238 202.898438 Z M 238 66 "/>
</clipPath>
<clipPath id="clip2">
  <path d="M 237 65 L 240 65 L 240 202.898438 L 237 202.898438 Z M 237 65 "/>
</clipPath>
</defs>
<g id="surface1">
<path style=" stroke:none;fill-rule:evenodd;fill:rgb(0%,56.443787%,20.776367%);fill-opacity:1;" d="M 20.949219 183.8125 L 128.152344 183.8125 L 128.152344 128.886719 L 20.949219 128.886719 Z M 20.949219 183.8125 "/>
<path style="fill-rule:evenodd;fill:rgb(10.594177%,9.812927%,9.423828%);fill-opacity:1;stroke-width:2.16;stroke-linecap:butt;stroke-linejoin:miter;stroke:rgb(10.594177%,9.812927%,9.423828%);stroke-opacity:1;stroke-miterlimit:4;" d="M 741.132813 98.179688 L 755.078125 98.179688 L 755.078125 211.34375 L 741.132813 211.34375 Z M 741.132813 98.179688 " transform="matrix(0.1,0,0,-0.1,0,202.9)"/>
<path style=" stroke:none;fill-rule:evenodd;fill:rgb(10.594177%,9.812927%,9.423828%);fill-opacity:1;" d="M 47.558594 149.238281 L 56.0625 149.238281 L 56.0625 150.027344 C 54.882813 150.160156 54.03125 150.527344 53.496094 151.121094 C 53.230469 151.378906 52.839844 151.960938 52.332031 152.847656 C 51.820313 153.738281 51.222656 154.902344 50.527344 156.351563 C 49.828125 157.800781 49.097656 159.226563 48.316406 160.605469 C 47.542969 161.992188 46.730469 163.308594 45.871094 164.5625 C 46.511719 165.417969 47.140625 166.15625 47.753906 166.785156 C 48.371094 167.410156 48.945313 167.890625 49.480469 168.21875 C 50.015625 168.546875 50.546875 168.796875 51.085938 168.960938 C 51.621094 169.128906 52.160156 169.210938 52.695313 169.210938 C 53.230469 169.210938 53.71875 169.128906 54.171875 168.960938 C 54.628906 168.796875 55.046875 168.546875 55.414063 168.21875 C 55.789063 167.957031 56.117188 167.582031 56.386719 167.085938 C 56.652344 166.585938 56.839844 166.011719 56.949219 165.355469 L 57.746094 166.039063 C 57.484375 167.292969 57.121094 168.378906 56.664063 169.304688 C 56.210938 170.230469 55.683594 170.984375 55.101563 171.585938 C 54.515625 172.167969 53.871094 172.613281 53.167969 172.914063 C 52.476563 173.214844 51.726563 173.359375 50.921875 173.359375 C 50.339844 173.359375 49.734375 173.253906 49.121094 173.058594 C 48.507813 172.863281 47.878906 172.570313 47.234375 172.167969 C 46.648438 171.777344 46.007813 171.253906 45.304688 170.589844 C 44.613281 169.925781 43.890625 169.109375 43.140625 168.121094 C 41.484375 170.097656 39.960938 171.472656 38.566406 172.265625 C 37.921875 172.667969 37.246094 172.941406 36.523438 173.109375 C 35.796875 173.269531 35.035156 173.359375 34.234375 173.359375 C 31.988281 173.359375 30.226563 172.59375 28.941406 171.085938 C 28.292969 170.292969 27.792969 169.417969 27.453125 168.46875 C 27.105469 167.507813 26.933594 166.503906 26.933594 165.457031 C 26.933594 164.394531 27.089844 163.332031 27.414063 162.242188 C 27.734375 161.148438 28.1875 160.082031 28.78125 159.019531 C 29.414063 157.910156 30.320313 156.789063 31.46875 155.667969 C 32.617188 154.546875 34.042969 153.425781 35.757813 152.304688 C 35.441406 151.457031 35.160156 150.660156 34.917969 149.929688 C 34.671875 149.214844 34.496094 148.550781 34.394531 147.960938 C 34.289063 147.429688 34.203125 146.886719 34.15625 146.332031 C 34.105469 145.765625 34.074219 145.226563 34.074219 144.691406 C 34.074219 141.792969 34.957031 139.589844 36.726563 138.078125 C 38.113281 136.890625 39.714844 136.292969 41.535156 136.292969 C 42.335938 136.292969 43.089844 136.445313 43.78125 136.738281 C 44.484375 137.03125 45.097656 137.476563 45.632813 138.078125 C 46.164063 138.730469 46.570313 139.441406 46.835938 140.203125 C 47.105469 140.957031 47.234375 141.792969 47.234375 142.714844 C 47.234375 144.496094 46.730469 146.113281 45.710938 147.5625 C 45.171875 148.222656 44.441406 148.925781 43.496094 149.679688 C 42.570313 150.445313 41.457031 151.246094 40.167969 152.109375 C 40.917969 154.011719 41.695313 155.863281 42.503906 157.640625 C 43.304688 159.421875 44.105469 161.101563 44.910156 162.6875 C 46.402344 160.839844 47.542969 159.128906 48.316406 157.542969 C 49.097656 155.964844 49.480469 154.511719 49.480469 153.195313 C 49.480469 152.792969 49.429688 152.402344 49.320313 152.011719 C 49.214844 151.613281 49.054688 151.246094 48.839844 150.917969 C 48.738281 150.722656 48.570313 150.542969 48.363281 150.378906 C 48.144531 150.214844 47.878906 150.097656 47.558594 150.027344 Z M 39.449219 149.929688 C 40.308594 149.40625 41.058594 148.84375 41.695313 148.253906 C 42.335938 147.660156 42.851563 147.066406 43.226563 146.46875 C 43.652344 145.8125 43.984375 145.117188 44.222656 144.398438 C 44.46875 143.675781 44.582031 142.953125 44.582031 142.226563 C 44.582031 141.558594 44.503906 140.992188 44.34375 140.492188 C 44.1875 140.003906 43.949219 139.558594 43.621094 139.15625 C 43.304688 138.765625 42.945313 138.464844 42.539063 138.269531 C 42.144531 138.078125 41.695313 137.976563 41.21875 137.976563 C 39.984375 137.976563 39.046875 138.464844 38.410156 139.457031 C 37.765625 140.511719 37.449219 141.53125 37.449219 142.519531 C 37.449219 142.910156 37.484375 143.355469 37.5625 143.855469 C 37.644531 144.34375 37.738281 144.828125 37.84375 145.285156 C 37.953125 145.8125 38.140625 146.457031 38.410156 147.21875 C 38.671875 147.972656 39.023438 148.878906 39.449219 149.929688 Z M 42.179688 166.636719 C 41.328125 165.050781 40.605469 163.671875 40.011719 162.480469 C 39.421875 161.296875 38.972656 160.347656 38.648438 159.617188 C 38.328125 158.898438 37.984375 158.070313 37.605469 157.144531 C 37.230469 156.226563 36.855469 155.210938 36.480469 154.089844 C 35.679688 154.679688 34.984375 155.320313 34.394531 156.015625 C 33.808594 156.703125 33.292969 157.410156 32.867188 158.132813 C 32.066406 159.585938 31.667969 161.164063 31.667969 162.882813 C 31.667969 163.867188 31.785156 164.777344 32.03125 165.59375 C 32.269531 166.421875 32.601563 167.195313 33.027344 167.917969 C 33.460938 168.644531 33.980469 169.1875 34.59375 169.554688 C 35.207031 169.917969 35.894531 170.097656 36.640625 170.097656 C 37.074219 170.097656 37.484375 170.023438 37.886719 169.898438 C 38.285156 169.765625 38.671875 169.597656 39.046875 169.402344 C 39.421875 169.210938 39.882813 168.878906 40.414063 168.414063 C 40.949219 167.957031 41.535156 167.355469 42.179688 166.636719 Z M 42.179688 166.636719 "/>
<path style=" stroke:none;fill-rule:evenodd;fill:rgb(100%,100%,100%);fill-opacity:1;" d="M 68.863281 177.621094 L 68.863281 171.660156 C 68.863281 170.179688 68.222656 169.433594 66.941406 169.433594 C 66.535156 169.433594 66.15625 169.5625 65.804688 169.8125 C 65.457031 170.058594 65.214844 170.339844 65.085938 170.660156 L 65.085938 177.621094 L 63.414063 177.621094 L 63.414063 170.929688 C 63.414063 170.46875 63.242188 170.105469 62.894531 169.839844 C 62.539063 169.570313 62.082031 169.433594 61.507813 169.433594 C 61.167969 169.433594 60.816406 169.566406 60.4375 169.828125 C 60.058594 170.085938 59.789063 170.367188 59.632813 170.679688 L 59.632813 177.621094 L 57.964844 177.621094 L 57.964844 168.210938 L 59.054688 168.210938 L 59.605469 169.296875 C 60.253906 168.457031 61.058594 168.03125 62.027344 168.03125 C 63.371094 168.03125 64.316406 168.453125 64.855469 169.289063 C 65.039063 168.929688 65.390625 168.632813 65.902344 168.390625 C 66.414063 168.152344 66.9375 168.03125 67.472656 168.03125 C 68.449219 168.03125 69.203125 168.320313 69.734375 168.894531 C 70.269531 169.472656 70.535156 170.285156 70.535156 171.328125 L 70.535156 177.621094 Z M 79.027344 169.214844 C 79.496094 169.839844 79.738281 170.738281 79.738281 171.925781 L 79.738281 175.300781 C 79.738281 176.128906 79.984375 176.679688 80.476563 176.957031 L 80.476563 177.789063 C 79.792969 177.789063 79.289063 177.691406 78.953125 177.503906 C 78.613281 177.304688 78.371094 176.984375 78.226563 176.539063 C 77.554688 177.378906 76.535156 177.796875 75.160156 177.796875 C 74.414063 177.796875 73.777344 177.527344 73.234375 176.992188 C 72.695313 176.460938 72.417969 175.789063 72.417969 174.992188 C 72.417969 174.039063 72.84375 173.230469 73.671875 172.570313 C 74.511719 171.910156 75.574219 171.585938 76.871094 171.585938 C 77.222656 171.585938 77.621094 171.660156 78.066406 171.808594 L 77.757813 170.390625 C 77.621094 169.773438 76.835938 169.527344 76.027344 169.527344 C 74.984375 169.527344 74.179688 169.804688 73.621094 170.367188 L 72.914063 168.96875 C 73.234375 168.714844 73.667969 168.492188 74.230469 168.308594 C 74.789063 168.121094 75.324219 168.03125 75.835938 168.03125 C 77.199219 168.03125 78.191406 168.339844 78.8125 168.964844 C 78.886719 169.039063 78.960938 169.121094 79.027344 169.214844 Z M 78.066406 172.996094 C 77.539063 172.878906 77.164063 172.820313 76.960938 172.820313 C 76.117188 172.820313 75.421875 173.039063 74.894531 173.472656 C 74.359375 173.90625 74.09375 174.417969 74.09375 175.011719 C 74.09375 175.988281 74.667969 176.476563 75.824219 176.476563 C 76.664063 176.476563 77.414063 176.078125 78.066406 175.273438 Z M 84.089844 164.648438 C 84.371094 164.648438 84.621094 164.746094 84.820313 164.953125 C 85.023438 165.152344 85.121094 165.394531 85.121094 165.675781 C 85.121094 165.964844 85.023438 166.210938 84.820313 166.40625 C 84.621094 166.613281 84.371094 166.714844 84.089844 166.714844 C 83.808594 166.714844 83.5625 166.613281 83.363281 166.40625 C 83.160156 166.210938 83.058594 165.964844 83.058594 165.675781 C 83.058594 165.386719 83.160156 165.144531 83.359375 164.945313 C 83.558594 164.746094 83.796875 164.648438 84.089844 164.648438 Z M 83.167969 177.621094 L 83.167969 169.613281 L 81.878906 169.613281 L 81.878906 168.210938 L 84.84375 168.210938 L 84.84375 177.621094 Z M 86.882813 177.058594 L 87.472656 175.476563 C 88.402344 176.089844 89.152344 176.390625 89.722656 176.390625 C 90.753906 176.390625 91.269531 175.960938 91.269531 175.089844 C 91.269531 174.46875 90.769531 173.933594 89.773438 173.488281 C 89.007813 173.136719 88.492188 172.871094 88.222656 172.6875 C 87.957031 172.507813 87.726563 172.300781 87.53125 172.070313 C 87.332031 171.839844 87.1875 171.59375 87.089844 171.335938 C 86.992188 171.070313 86.945313 170.792969 86.945313 170.492188 C 86.945313 169.71875 87.226563 169.113281 87.789063 168.679688 C 88.351563 168.246094 89.085938 168.03125 89.996094 168.03125 C 90.679688 168.03125 91.542969 168.246094 92.589844 168.679688 L 92.117188 170.226563 C 91.453125 169.703125 90.785156 169.433594 90.121094 169.433594 C 89.722656 169.433594 89.382813 169.53125 89.113281 169.71875 C 88.839844 169.90625 88.703125 170.144531 88.703125 170.433594 C 88.703125 171.035156 89.042969 171.492188 89.734375 171.804688 L 90.921875 172.347656 C 91.660156 172.683594 92.191406 173.058594 92.527344 173.488281 C 92.863281 173.917969 93.027344 174.457031 93.027344 175.097656 C 93.027344 175.941406 92.734375 176.605469 92.140625 177.085938 C 91.542969 177.558594 90.730469 177.796875 89.679688 177.796875 C 88.6875 177.796875 87.753906 177.550781 86.882813 177.058594 Z M 86.882813 177.058594 "/>
<path style=" stroke:none;fill-rule:evenodd;fill:rgb(100%,100%,100%);fill-opacity:1;" d="M 47.351563 150.03125 L 47.351563 132.128906 L 50.167969 132.128906 L 50.167969 149.558594 C 50.167969 150.410156 50.414063 151.082031 50.90625 151.570313 C 51.394531 152.054688 52.035156 152.304688 52.828125 152.304688 L 52.828125 154.828125 C 49.179688 154.828125 47.351563 153.226563 47.351563 150.03125 Z M 58.996094 132.632813 C 59.480469 132.632813 59.898438 132.800781 60.234375 133.144531 C 60.582031 133.484375 60.746094 133.894531 60.746094 134.371094 C 60.746094 134.851563 60.582031 135.265625 60.234375 135.605469 C 59.898438 135.953125 59.480469 136.117188 58.996094 136.117188 C 58.523438 136.117188 58.113281 135.953125 57.777344 135.605469 C 57.4375 135.265625 57.265625 134.851563 57.265625 134.371094 C 57.265625 133.882813 57.429688 133.472656 57.769531 133.132813 C 58.105469 132.800781 58.515625 132.632813 58.996094 132.632813 Z M 57.457031 154.527344 L 57.457031 141.011719 L 55.273438 141.011719 L 55.273438 138.636719 L 60.277344 138.636719 L 60.277344 154.527344 Z M 70.480469 154.828125 L 69.738281 154.828125 L 62.929688 138.597656 L 66.019531 138.597656 L 70.214844 149.722656 L 74.496094 138.597656 L 77.449219 138.597656 Z M 88.265625 141.351563 C 87.652344 140.925781 87.03125 140.714844 86.40625 140.714844 C 85.410156 140.714844 84.539063 141.175781 83.789063 142.097656 C 83.042969 143.015625 82.667969 144.121094 82.667969 145.417969 L 82.667969 154.527344 L 79.851563 154.527344 L 79.851563 138.636719 L 82.667969 138.636719 L 82.667969 141.175781 C 83.699219 139.285156 85.226563 138.34375 87.253906 138.34375 C 87.757813 138.34375 88.488281 138.429688 89.433594 138.605469 Z M 90.398438 146.546875 C 90.398438 144.089844 91.0625 142.109375 92.382813 140.601563 C 93.699219 139.097656 95.441406 138.34375 97.59375 138.34375 C 99.871094 138.34375 101.632813 139.066406 102.886719 140.515625 C 104.144531 141.964844 104.773438 143.972656 104.773438 146.546875 C 104.773438 149.109375 104.128906 151.128906 102.84375 152.605469 C 101.5625 154.089844 99.808594 154.828125 97.59375 154.828125 C 95.328125 154.828125 93.5625 154.078125 92.292969 152.585938 C 91.03125 151.089844 90.398438 149.082031 90.398438 146.546875 Z M 93.363281 146.546875 C 93.363281 150.53125 94.777344 152.519531 97.59375 152.519531 C 98.910156 152.519531 99.941406 151.988281 100.6875 150.921875 C 101.433594 149.851563 101.804688 148.394531 101.804688 146.546875 C 101.804688 142.605469 100.402344 140.644531 97.59375 140.644531 C 96.304688 140.644531 95.28125 141.164063 94.515625 142.214844 C 93.746094 143.261719 93.363281 144.710938 93.363281 146.546875 Z M 106.699219 153.578125 L 107.699219 150.90625 C 109.265625 151.933594 110.535156 152.453125 111.496094 152.453125 C 113.230469 152.453125 114.101563 151.714844 114.101563 150.253906 C 114.101563 149.207031 113.261719 148.304688 111.578125 147.554688 C 110.285156 146.964844 109.414063 146.511719 108.964844 146.207031 C 108.511719 145.898438 108.121094 145.550781 107.789063 145.160156 C 107.460938 144.769531 107.21875 144.355469 107.050781 143.914063 C 106.886719 143.472656 106.808594 143.003906 106.808594 142.496094 C 106.808594 141.1875 107.28125 140.171875 108.230469 139.4375 C 109.183594 138.710938 110.421875 138.34375 111.953125 138.34375 C 113.109375 138.34375 114.570313 138.710938 116.328125 139.4375 L 115.53125 142.050781 C 114.410156 141.160156 113.289063 140.714844 112.164063 140.714844 C 111.492188 140.714844 110.921875 140.878906 110.460938 141.1875 C 110.003906 141.507813 109.773438 141.910156 109.773438 142.394531 C 109.773438 143.414063 110.351563 144.183594 111.511719 144.710938 L 113.527344 145.628906 C 114.761719 146.191406 115.664063 146.832031 116.226563 147.554688 C 116.789063 148.277344 117.070313 149.179688 117.070313 150.269531 C 117.070313 151.691406 116.574219 152.808594 115.570313 153.613281 C 114.574219 154.417969 113.191406 154.828125 111.414063 154.828125 C 109.746094 154.828125 108.175781 154.410156 106.699219 153.578125 Z M 106.699219 153.578125 "/>
<path style=" stroke:none;fill-rule:evenodd;fill:rgb(100%,100%,100%);fill-opacity:1;" d="M 94.363281 164.117188 L 94.363281 160.589844 C 94.363281 159.714844 93.980469 159.269531 93.222656 159.269531 C 92.984375 159.269531 92.757813 159.34375 92.546875 159.492188 C 92.34375 159.636719 92.199219 159.804688 92.121094 159.992188 L 92.121094 164.117188 L 91.132813 164.117188 L 91.132813 160.152344 C 91.132813 159.878906 91.03125 159.664063 90.824219 159.507813 C 90.617188 159.347656 90.347656 159.269531 90.003906 159.269531 C 89.808594 159.269531 89.597656 159.34375 89.371094 159.503906 C 89.148438 159.652344 88.992188 159.820313 88.894531 160.003906 L 88.894531 164.117188 L 87.910156 164.117188 L 87.910156 158.539063 L 88.554688 158.539063 L 88.878906 159.1875 C 89.261719 158.6875 89.738281 158.4375 90.3125 158.4375 C 91.109375 158.4375 91.664063 158.683594 91.988281 159.183594 C 92.097656 158.96875 92.304688 158.792969 92.609375 158.652344 C 92.910156 158.507813 93.21875 158.4375 93.539063 158.4375 C 94.117188 158.4375 94.5625 158.609375 94.871094 158.953125 C 95.191406 159.292969 95.351563 159.773438 95.351563 160.390625 L 95.351563 164.117188 Z M 97.691406 158.539063 L 97.691406 162.097656 C 97.691406 162.960938 98.066406 163.386719 98.8125 163.386719 C 99.136719 163.386719 99.4375 163.292969 99.707031 163.105469 C 99.976563 162.917969 100.15625 162.707031 100.242188 162.457031 L 100.242188 158.539063 L 101.230469 158.539063 L 101.230469 164.117188 L 100.242188 164.117188 L 100.242188 163.34375 C 100.132813 163.5625 99.910156 163.765625 99.574219 163.953125 C 99.238281 164.128906 98.910156 164.222656 98.59375 164.222656 C 97.980469 164.222656 97.515625 164.046875 97.191406 163.695313 C 96.867188 163.34375 96.703125 162.847656 96.703125 162.203125 L 96.703125 158.539063 Z M 103.601563 156.433594 C 103.769531 156.433594 103.914063 156.492188 104.035156 156.613281 C 104.15625 156.730469 104.214844 156.878906 104.214844 157.042969 C 104.214844 157.214844 104.15625 157.355469 104.035156 157.476563 C 103.914063 157.597656 103.769531 157.65625 103.601563 157.65625 C 103.433594 157.65625 103.289063 157.597656 103.171875 157.476563 C 103.050781 157.355469 102.992188 157.214844 102.992188 157.042969 C 102.992188 156.871094 103.050781 156.726563 103.164063 156.609375 C 103.285156 156.492188 103.429688 156.433594 103.601563 156.433594 Z M 103.058594 164.117188 L 103.058594 159.378906 L 102.289063 159.378906 L 102.289063 158.539063 L 104.046875 158.539063 L 104.046875 164.117188 Z M 105.972656 159.328125 L 105.328125 159.328125 L 105.328125 158.539063 L 105.972656 158.539063 L 105.972656 157.378906 L 106.960938 156.996094 L 106.960938 158.539063 L 108.492188 158.539063 L 108.492188 159.328125 L 106.960938 159.328125 L 106.960938 162.089844 C 106.960938 162.558594 107.039063 162.894531 107.199219 163.089844 C 107.359375 163.289063 107.613281 163.386719 107.960938 163.386719 C 108.214844 163.386719 108.476563 163.328125 108.746094 163.195313 L 108.894531 164.066406 C 108.484375 164.167969 108.035156 164.222656 107.546875 164.222656 C 107.105469 164.222656 106.734375 164.054688 106.429688 163.730469 C 106.121094 163.398438 105.972656 162.984375 105.972656 162.488281 Z M 109.480469 161.316406 C 109.480469 160.457031 109.714844 159.757813 110.179688 159.230469 C 110.640625 158.707031 111.246094 158.4375 112.007813 158.4375 C 112.804688 158.4375 113.425781 158.691406 113.863281 159.203125 C 114.304688 159.710938 114.527344 160.414063 114.527344 161.316406 C 114.527344 162.214844 114.300781 162.925781 113.847656 163.441406 C 113.398438 163.964844 112.785156 164.222656 112.007813 164.222656 C 111.210938 164.222656 110.59375 163.960938 110.148438 163.433594 C 109.703125 162.910156 109.480469 162.207031 109.480469 161.316406 Z M 110.523438 161.316406 C 110.523438 162.714844 111.019531 163.414063 112.007813 163.414063 C 112.46875 163.414063 112.828125 163.226563 113.09375 162.851563 C 113.355469 162.476563 113.484375 161.964844 113.484375 161.316406 C 113.484375 159.933594 112.992188 159.246094 112.007813 159.246094 C 111.554688 159.246094 111.195313 159.425781 110.925781 159.796875 C 110.65625 160.164063 110.523438 160.671875 110.523438 161.316406 Z M 110.523438 161.316406 "/>
<path style=" stroke:none;fill-rule:evenodd;fill:rgb(46.263123%,55.664063%,76.5625%);fill-opacity:1;" d="M 20.054688 74.332031 L 74.660156 74.332031 L 74.660156 19.722656 L 20.054688 19.722656 Z M 20.054688 74.332031 "/>
<path style=" stroke:none;fill-rule:evenodd;fill:rgb(10.594177%,9.812927%,9.423828%);fill-opacity:1;" d="M 57.734375 52.90625 L 75.066406 55.070313 C 74.117188 59.03125 72.539063 62.472656 70.371094 65.371094 C 68.183594 68.277344 65.398438 70.523438 62.003906 72.132813 C 58.621094 73.726563 54.308594 74.535156 49.078125 74.535156 C 44.03125 74.535156 39.824219 74.011719 36.472656 72.988281 C 33.109375 71.949219 30.214844 70.289063 27.796875 67.972656 C 25.367188 65.660156 23.472656 62.960938 22.109375 59.839844 C 20.734375 56.734375 20.039063 52.605469 20.039063 47.453125 C 20.039063 42.089844 20.871094 37.605469 22.554688 34.03125 C 23.777344 31.414063 25.445313 29.066406 27.570313 26.984375 C 29.695313 24.90625 31.867188 23.34375 34.117188 22.339844 C 37.664063 20.726563 42.222656 19.921875 47.777344 19.921875 C 55.542969 19.921875 61.46875 21.449219 65.546875 24.503906 C 69.621094 27.539063 72.496094 32.003906 74.132813 37.878906 L 56.96875 40.378906 C 56.433594 38.144531 55.457031 36.464844 54.03125 35.339844 C 52.609375 34.199219 50.714844 33.644531 48.3125 33.644531 C 45.296875 33.644531 42.851563 34.839844 40.984375 37.203125 C 39.121094 39.589844 38.1875 43.175781 38.1875 47.992188 C 38.1875 52.285156 39.121094 55.546875 40.96875 57.773438 C 42.820313 60.003906 45.171875 61.113281 48.046875 61.113281 C 50.4375 61.113281 52.441406 60.441406 54.078125 59.097656 C 55.699219 57.753906 56.921875 55.691406 57.734375 52.90625 Z M 57.734375 52.90625 "/>
<path style=" stroke:none;fill-rule:evenodd;fill:rgb(35.693359%,76.5625%,80.46875%);fill-opacity:1;" d="M 74.664063 74.332031 L 129.277344 74.332031 L 129.277344 19.722656 L 74.664063 19.722656 Z M 74.664063 74.332031 "/>
<path style=" stroke:none;fill-rule:evenodd;fill:rgb(96.875%,67.381287%,43.530273%);fill-opacity:1;" d="M 74.664063 128.945313 L 129.277344 128.945313 L 129.277344 74.335938 L 74.664063 74.335938 Z M 74.664063 128.945313 "/>
<path style=" stroke:none;fill-rule:evenodd;fill:rgb(91.796875%,30.589294%,41.967773%);fill-opacity:1;" d="M 20.054688 128.945313 L 74.660156 128.945313 L 74.660156 74.335938 L 20.054688 74.335938 Z M 20.054688 128.945313 "/>
<path style=" stroke:none;fill-rule:evenodd;fill:rgb(100%,92.576599%,0%);fill-opacity:1;" d="M 129.277344 128.945313 L 183.886719 128.945313 L 183.886719 74.335938 L 129.277344 74.335938 Z M 129.277344 128.945313 "/>
<path style=" stroke:none;fill-rule:evenodd;fill:rgb(65.429688%,83.201599%,67.381287%);fill-opacity:1;" d="M 183.886719 128.945313 L 238.496094 128.945313 L 238.496094 74.335938 L 183.886719 74.335938 Z M 183.886719 128.945313 "/>
<path style=" stroke:none;fill-rule:evenodd;fill:rgb(10.594177%,9.812927%,9.423828%);fill-opacity:1;" d="M 238.496094 127.742188 L 220.121094 127.742188 L 220.121094 119.089844 C 217.378906 122.644531 214.621094 125.1875 211.835938 126.679688 C 209.046875 128.191406 205.617188 128.945313 201.558594 128.945313 C 196.144531 128.945313 191.90625 127.261719 188.820313 123.898438 C 185.746094 120.535156 184.214844 115.335938 184.214844 108.332031 L 184.214844 74.335938 L 203.984375 74.335938 L 203.984375 103.710938 C 203.984375 107.054688 204.578125 109.441406 205.765625 110.851563 C 206.96875 112.257813 208.636719 112.964844 210.796875 112.964844 C 213.15625 112.964844 215.070313 112.019531 216.570313 110.144531 C 218.074219 108.257813 218.816406 104.894531 218.816406 100.035156 L 218.816406 74.335938 L 238.496094 74.335938 Z M 238.496094 127.742188 "/>
<path style=" stroke:none;fill-rule:evenodd;fill:rgb(0%,54.492188%,81.639099%);fill-opacity:1;" d="M 183.886719 183.558594 L 238.496094 183.558594 L 238.496094 128.945313 L 183.886719 128.945313 Z M 183.886719 183.558594 "/>
<path style=" stroke:none;fill-rule:evenodd;fill:rgb(69.334412%,70.117188%,70.506287%);fill-opacity:1;" d="M 129.277344 183.558594 L 183.886719 183.558594 L 183.886719 128.945313 L 129.277344 128.945313 Z M 129.277344 183.558594 "/>
<path style=" stroke:none;fill-rule:evenodd;fill:rgb(10.594177%,9.812927%,9.423828%);fill-opacity:1;" d="M 93.726563 37.824219 L 76.417969 35.808594 C 77.078125 32.46875 78.019531 29.835938 79.246094 27.921875 C 80.480469 26.003906 82.242188 24.339844 84.566406 22.929688 C 86.222656 21.90625 88.515625 21.117188 91.414063 20.5625 C 94.320313 20.007813 97.464844 19.722656 100.851563 19.722656 C 106.273438 19.722656 110.652344 20.058594 113.933594 20.730469 C 117.230469 21.402344 119.976563 22.8125 122.164063 24.945313 C 123.714844 26.421875 124.929688 28.503906 125.828125 31.210938 C 126.703125 33.929688 127.148438 36.503906 127.148438 38.96875 L 127.148438 62.039063 C 127.148438 64.492188 127.300781 66.425781 127.574219 67.816406 C 127.863281 69.214844 128.46875 70.992188 129.425781 73.15625 L 112.429688 73.15625 C 111.746094 71.816406 111.304688 70.789063 111.089844 70.089844 C 110.878906 69.378906 110.679688 68.269531 110.46875 66.761719 C 108.097656 69.296875 105.730469 71.09375 103.390625 72.171875 C 100.183594 73.613281 96.460938 74.335938 92.222656 74.335938 C 86.585938 74.335938 82.304688 72.890625 79.371094 70.003906 C 76.453125 67.128906 74.996094 63.570313 74.996094 59.339844 C 74.996094 55.355469 76.039063 52.097656 78.15625 49.546875 C 80.265625 46.976563 84.140625 45.078125 89.808594 43.839844 C 96.613281 42.324219 101.019531 41.269531 103.039063 40.664063 C 105.039063 40.058594 107.1875 39.253906 109.433594 38.277344 C 109.433594 35.808594 108.980469 34.097656 108.066406 33.105469 C 107.140625 32.132813 105.53125 31.628906 103.203125 31.628906 C 100.242188 31.628906 98.027344 32.164063 96.539063 33.210938 C 95.382813 34.03125 94.441406 35.574219 93.726563 37.824219 Z M 109.433594 48.355469 C 106.945313 49.34375 104.347656 50.21875 101.65625 50.972656 C 97.980469 52.050781 95.640625 53.128906 94.664063 54.164063 C 93.652344 55.257813 93.148438 56.484375 93.148438 57.859375 C 93.148438 59.4375 93.652344 60.714844 94.636719 61.722656 C 95.640625 62.714844 97.097656 63.214844 99.027344 63.214844 C 101.050781 63.214844 102.914063 62.679688 104.664063 61.605469 C 106.398438 60.511719 107.628906 59.1875 108.355469 57.640625 C 109.085938 56.078125 109.433594 54.046875 109.433594 51.5625 Z M 109.433594 48.355469 "/>
<path style=" stroke:none;fill-rule:evenodd;fill:rgb(10.594177%,9.812927%,9.423828%);fill-opacity:1;" d="M 20.289063 128.910156 L 20.289063 75.40625 L 38.007813 75.40625 L 38.007813 82.355469 C 40.46875 79.425781 42.707031 77.445313 44.757813 76.421875 C 47.519531 75.027344 50.566406 74.335938 53.914063 74.335938 C 60.519531 74.335938 65.632813 76.753906 69.246094 81.554688 C 72.855469 86.359375 74.664063 92.3125 74.664063 99.402344 C 74.664063 107.214844 72.695313 113.179688 68.757813 117.304688 C 64.820313 121.414063 59.835938 123.46875 53.835938 123.46875 C 50.914063 123.46875 48.246094 123.003906 45.851563 122.066406 C 43.453125 121.113281 41.292969 119.710938 39.40625 117.847656 L 39.40625 128.910156 Z M 39.28125 99.039063 C 39.28125 102.753906 40.089844 105.519531 41.742188 107.316406 C 43.371094 109.117188 45.453125 110.023438 47.964844 110.023438 C 50.164063 110.023438 52.011719 109.160156 53.503906 107.425781 C 54.996094 105.707031 55.742188 102.769531 55.742188 98.644531 C 55.742188 94.839844 54.964844 92.046875 53.410156 90.257813 C 51.867188 88.464844 49.964844 87.570313 47.742188 87.570313 C 45.3125 87.570313 43.292969 88.476563 41.691406 90.273438 C 40.074219 92.070313 39.28125 95.003906 39.28125 99.039063 Z M 39.28125 99.039063 "/>
<path style=" stroke:none;fill-rule:evenodd;fill:rgb(10.594177%,9.812927%,9.423828%);fill-opacity:1;" d="M 92.085938 128.945313 L 112.121094 128.945313 L 112.121094 74.480469 L 92.085938 74.480469 Z M 92.085938 128.945313 "/>
<path style=" stroke:none;fill-rule:evenodd;fill:rgb(10.594177%,9.812927%,9.423828%);fill-opacity:1;" d="M 174.476563 74.441406 L 174.476563 89.347656 L 163.414063 89.347656 L 163.414063 108.265625 C 163.414063 110.542969 163.632813 112.050781 164.054688 112.789063 C 164.710938 113.917969 165.859375 114.503906 167.511719 114.503906 C 168.996094 114.503906 171.070313 114.054688 173.734375 113.183594 L 175.21875 127.300781 C 170.242188 128.398438 165.605469 128.945313 161.289063 128.945313 C 156.28125 128.945313 152.585938 128.292969 150.226563 126.992188 C 147.847656 125.691406 146.09375 123.707031 144.964844 121.046875 C 143.816406 118.390625 143.261719 114.078125 143.261719 108.109375 L 143.261719 89.347656 L 135.839844 89.347656 L 135.839844 74.441406 Z M 174.476563 74.441406 "/>
<path style=" stroke:none;fill-rule:evenodd;fill:rgb(10.594177%,9.812927%,9.423828%);fill-opacity:1;" d="M 129.347656 183.558594 L 149.886719 183.558594 L 149.886719 128.945313 L 129.347656 128.945313 Z M 129.347656 183.558594 "/>
<path style=" stroke:none;fill-rule:evenodd;fill:rgb(10.594177%,9.812927%,9.423828%);fill-opacity:1;" d="M 183.890625 156.402344 C 183.890625 148.441406 186.335938 141.859375 191.226563 136.707031 C 196.128906 131.53125 202.730469 128.945313 211.058594 128.945313 C 220.578125 128.945313 227.773438 131.984375 232.632813 138.046875 C 236.539063 142.933594 238.496094 148.964844 238.496094 156.117188 C 238.496094 164.144531 236.070313 170.726563 231.226563 175.867188 C 226.382813 180.988281 219.675781 183.558594 211.105469 183.558594 C 203.464844 183.558594 197.289063 181.425781 192.570313 177.160156 C 186.777344 171.886719 183.890625 164.96875 183.890625 156.402344 Z M 202.148438 156.351563 C 202.148438 161.019531 203.003906 164.464844 204.730469 166.679688 C 206.445313 168.914063 208.597656 170.039063 211.195313 170.039063 C 213.824219 170.039063 215.976563 168.929688 217.660156 166.730469 C 219.355469 164.53125 220.195313 161.019531 220.195313 156.148438 C 220.195313 151.632813 219.339844 148.257813 217.644531 146.039063 C 215.949219 143.839844 213.839844 142.734375 211.328125 142.734375 C 208.675781 142.734375 206.472656 143.859375 204.746094 146.089844 C 203.019531 148.339844 202.148438 151.765625 202.148438 156.351563 Z M 202.148438 156.351563 "/>
<path style=" stroke:none;fill-rule:evenodd;fill:rgb(10.594177%,9.812927%,9.423828%);fill-opacity:1;" d="M 129.277344 183.558594 L 172.453125 183.558594 L 172.453125 167.855469 L 129.277344 167.855469 Z M 129.277344 183.558594 "/>
<path style="fill-rule:evenodd;fill:rgb(100%,100%,100%);fill-opacity:1;stroke-width:2;stroke-linecap:butt;stroke-linejoin:miter;stroke:rgb(0%,0%,0%);stroke-opacity:1;stroke-miterlimit:4;" d="M 1012.96875 1342.203125 L 1144.257813 1487.28125 L 1192.617188 1422.828125 Z M 1012.96875 1342.203125 " transform="matrix(0.1,0,0,-0.1,0,202.9)"/>
<path style="fill-rule:evenodd;fill:rgb(10.594177%,9.812927%,9.423828%);fill-opacity:1;stroke-width:2.16;stroke-linecap:butt;stroke-linejoin:miter;stroke:rgb(10.594177%,9.812927%,9.423828%);stroke-opacity:1;stroke-miterlimit:4;" d="M 741.132813 712.4375 L 755.078125 712.4375 L 755.078125 2028.492188 L 741.132813 2028.492188 Z M 741.132813 712.4375 " transform="matrix(0.1,0,0,-0.1,0,202.9)"/>
<path style="fill-rule:evenodd;fill:rgb(10.594177%,9.812927%,9.423828%);fill-opacity:1;stroke-width:2.16;stroke-linecap:butt;stroke-linejoin:miter;stroke:rgb(10.594177%,9.812927%,9.423828%);stroke-opacity:1;stroke-miterlimit:4;" d="M 1280.898438 45.09375 L 1294.84375 45.09375 L 1294.84375 1926.617188 L 1280.898438 1926.617188 Z M 1280.898438 45.09375 " transform="matrix(0.1,0,0,-0.1,0,202.9)"/>
<path style="fill-rule:evenodd;fill:rgb(10.594177%,9.812927%,9.423828%);fill-opacity:1;stroke-width:2.16;stroke-linecap:butt;stroke-linejoin:miter;stroke:rgb(10.594177%,9.812927%,9.423828%);stroke-opacity:1;stroke-miterlimit:4;" d="M 198.710938 38.6875 L 212.695313 38.6875 L 212.695313 1926.617188 L 198.710938 1926.617188 Z M 198.710938 38.6875 " transform="matrix(0.1,0,0,-0.1,0,202.9)"/>
<path style="fill-rule:evenodd;fill:rgb(10.594177%,9.812927%,9.423828%);fill-opacity:1;stroke-width:2.16;stroke-linecap:butt;stroke-linejoin:miter;stroke:rgb(10.594177%,9.812927%,9.423828%);stroke-opacity:1;stroke-miterlimit:4;" d="M 1830.976563 101.851563 L 1844.921875 101.851563 L 1844.921875 1442.75 L 1830.976563 1442.75 Z M 1830.976563 101.851563 " transform="matrix(0.1,0,0,-0.1,0,202.9)"/>
<g clip-path="url(#clip1)" clip-rule="nonzero">
<path style=" stroke:none;fill-rule:evenodd;fill:rgb(10.594177%,9.812927%,9.423828%);fill-opacity:1;" d="M 238.101563 202.703125 L 239.496094 202.703125 L 239.496094 66.015625 L 238.101563 66.015625 Z M 238.101563 202.703125 "/>
</g>
<g clip-path="url(#clip2)" clip-rule="nonzero">
<path style="fill:none;stroke-width:2.16;stroke-linecap:butt;stroke-linejoin:miter;stroke:rgb(10.594177%,9.812927%,9.423828%);stroke-opacity:1;stroke-miterlimit:4;" d="M 2381.015625 1.96875 L 2394.960938 1.96875 L 2394.960938 1368.84375 L 2381.015625 1368.84375 Z M 2381.015625 1.96875 " transform="matrix(0.1,0,0,-0.1,0,202.9)"/>
</g>
<path style="fill-rule:evenodd;fill:rgb(10.594177%,9.812927%,9.423828%);fill-opacity:1;stroke-width:2.16;stroke-linecap:butt;stroke-linejoin:miter;stroke:rgb(10.594177%,9.812927%,9.423828%);stroke-opacity:1;stroke-miterlimit:4;" d="M 55.625 731.226563 L 2739.140625 731.226563 L 2739.140625 745.210938 L 55.625 745.210938 Z M 55.625 731.226563 " transform="matrix(0.1,0,0,-0.1,0,202.9)"/>
<path style="fill-rule:evenodd;fill:rgb(10.594177%,9.812927%,9.423828%);fill-opacity:1;stroke-width:2.16;stroke-linecap:butt;stroke-linejoin:miter;stroke:rgb(10.594177%,9.812927%,9.423828%);stroke-opacity:1;stroke-miterlimit:4;" d="M 55.625 1827.789063 L 1360.390625 1827.789063 L 1360.390625 1841.734375 L 55.625 1841.734375 Z M 55.625 1827.789063 " transform="matrix(0.1,0,0,-0.1,0,202.9)"/>
<path style="fill-rule:evenodd;fill:rgb(10.594177%,9.812927%,9.423828%);fill-opacity:1;stroke-width:2.16;stroke-linecap:butt;stroke-linejoin:miter;stroke:rgb(10.594177%,9.812927%,9.423828%);stroke-opacity:1;stroke-miterlimit:4;" d="M 1.445313 187.085938 L 2490.273438 187.085938 L 2490.273438 201.070313 L 1.445313 201.070313 Z M 1.445313 187.085938 " transform="matrix(0.1,0,0,-0.1,0,202.9)"/>
<path style="fill-rule:evenodd;fill:rgb(10.594177%,9.812927%,9.423828%);fill-opacity:1;stroke-width:2.16;stroke-linecap:butt;stroke-linejoin:miter;stroke:rgb(10.594177%,9.812927%,9.423828%);stroke-opacity:1;stroke-miterlimit:4;" d="M 10.625 1274.195313 L 2473.046875 1274.195313 L 2473.046875 1288.140625 L 10.625 1288.140625 Z M 10.625 1274.195313 " transform="matrix(0.1,0,0,-0.1,0,202.9)"/>
<path style=" stroke:none;fill-rule:evenodd;fill:rgb(10.594177%,9.812927%,9.423828%);fill-opacity:1;" d="M 192.863281 63.886719 C 192.550781 63.671875 192.238281 63.566406 191.921875 63.566406 C 191.414063 63.566406 190.976563 63.800781 190.597656 64.265625 C 190.21875 64.730469 190.03125 65.289063 190.03125 65.945313 L 190.03125 70.554688 L 188.601563 70.554688 L 188.601563 62.515625 L 190.03125 62.515625 L 190.03125 63.800781 C 190.550781 62.84375 191.324219 62.367188 192.347656 62.367188 C 192.605469 62.367188 192.972656 62.410156 193.453125 62.503906 Z M 201.238281 66.675781 L 195.441406 66.675781 C 195.441406 67.617188 195.699219 68.339844 196.214844 68.84375 C 196.671875 69.285156 197.257813 69.507813 197.972656 69.507813 C 198.789063 69.507813 199.46875 69.269531 200.015625 68.796875 L 200.617188 69.820313 C 200.394531 70.046875 200.058594 70.230469 199.601563 70.394531 C 199.03125 70.601563 198.398438 70.710938 197.695313 70.710938 C 196.683594 70.710938 195.828125 70.363281 195.121094 69.675781 C 194.335938 68.921875 193.941406 67.90625 193.941406 66.628906 C 193.941406 65.304688 194.34375 64.238281 195.148438 63.441406 C 195.871094 62.722656 196.722656 62.367188 197.710938 62.367188 C 198.855469 62.367188 199.753906 62.6875 200.40625 63.339844 C 201.035156 63.960938 201.351563 64.777344 201.351563 65.804688 C 201.351563 66.121094 201.3125 66.410156 201.238281 66.675781 Z M 197.777344 63.566406 C 197.140625 63.566406 196.609375 63.773438 196.175781 64.183594 C 195.765625 64.574219 195.535156 65.058594 195.480469 65.640625 L 199.933594 65.640625 C 199.933594 65.0625 199.753906 64.585938 199.390625 64.199219 C 198.996094 63.777344 198.453125 63.566406 197.777344 63.566406 Z M 205.746094 70.710938 L 205.371094 70.710938 L 201.929688 62.496094 L 203.492188 62.496094 L 205.617188 68.128906 L 207.785156 62.496094 L 209.277344 62.496094 Z M 211.070313 70.554688 L 211.070313 63.71875 L 209.96875 63.71875 L 209.96875 62.515625 L 212.496094 62.515625 L 212.496094 70.554688 Z M 214.238281 70.074219 L 214.742188 68.722656 C 215.539063 69.246094 216.179688 69.507813 216.664063 69.507813 C 217.539063 69.507813 217.984375 69.132813 217.984375 68.394531 C 217.984375 67.863281 217.558594 67.40625 216.710938 67.027344 C 216.054688 66.726563 215.613281 66.503906 215.382813 66.34375 C 215.15625 66.191406 214.960938 66.011719 214.789063 65.816406 C 214.621094 65.617188 214.496094 65.410156 214.414063 65.183594 C 214.328125 64.964844 214.289063 64.722656 214.289063 64.46875 C 214.289063 63.804688 214.535156 63.296875 215.011719 62.921875 C 215.496094 62.550781 216.121094 62.367188 216.898438 62.367188 C 217.484375 62.367188 218.222656 62.550781 219.113281 62.921875 L 218.703125 64.242188 C 218.140625 63.796875 217.574219 63.566406 217.003906 63.566406 C 216.664063 63.566406 216.371094 63.648438 216.144531 63.804688 C 215.910156 63.96875 215.789063 64.171875 215.789063 64.421875 C 215.789063 64.929688 216.085938 65.320313 216.671875 65.589844 L 217.695313 66.050781 C 218.320313 66.339844 218.773438 66.660156 219.058594 67.027344 C 219.347656 67.394531 219.488281 67.851563 219.488281 68.402344 C 219.488281 69.121094 219.234375 69.6875 218.730469 70.09375 C 218.222656 70.503906 217.523438 70.710938 216.628906 70.710938 C 215.78125 70.710938 214.984375 70.496094 214.238281 70.074219 Z M 221.496094 63.640625 L 220.570313 63.640625 L 220.570313 62.515625 L 221.496094 62.515625 L 221.496094 60.835938 L 222.925781 60.285156 L 222.925781 62.515625 L 225.136719 62.515625 L 225.136719 63.640625 L 222.925781 63.640625 L 222.925781 67.636719 C 222.925781 68.3125 223.039063 68.796875 223.269531 69.078125 C 223.496094 69.363281 223.863281 69.507813 224.367188 69.507813 C 224.734375 69.507813 225.113281 69.414063 225.496094 69.226563 L 225.710938 70.480469 C 225.121094 70.632813 224.472656 70.710938 223.769531 70.710938 C 223.132813 70.710938 222.59375 70.46875 222.15625 70.003906 C 221.71875 69.523438 221.496094 68.925781 221.496094 68.210938 Z M 231.628906 69.632813 C 231.058594 70.347656 230.183594 70.710938 229.011719 70.710938 C 228.378906 70.710938 227.828125 70.476563 227.367188 70.019531 C 226.90625 69.5625 226.671875 68.992188 226.671875 68.3125 C 226.671875 67.496094 227.03125 66.808594 227.746094 66.242188 C 228.453125 65.679688 229.367188 65.398438 230.472656 65.398438 C 230.773438 65.398438 231.113281 65.464844 231.492188 65.59375 C 231.492188 64.296875 230.914063 63.640625 229.753906 63.640625 C 228.863281 63.640625 228.175781 63.878906 227.695313 64.363281 L 227.09375 63.171875 C 227.363281 62.949219 227.738281 62.761719 228.214844 62.601563 C 228.695313 62.441406 229.152344 62.367188 229.585938 62.367188 C 230.753906 62.367188 231.601563 62.628906 232.128906 63.160156 C 232.65625 63.691406 232.921875 64.535156 232.921875 65.691406 L 232.921875 68.574219 C 232.921875 69.28125 233.132813 69.753906 233.550781 69.984375 L 233.550781 70.699219 C 232.96875 70.699219 232.535156 70.617188 232.246094 70.453125 C 231.960938 70.289063 231.753906 70.011719 231.628906 69.632813 Z M 231.492188 66.609375 C 231.039063 66.507813 230.726563 66.460938 230.546875 66.460938 C 229.828125 66.460938 229.238281 66.644531 228.785156 67.011719 C 228.328125 67.382813 228.101563 67.820313 228.101563 68.328125 C 228.101563 69.164063 228.59375 69.585938 229.578125 69.585938 C 230.300781 69.585938 230.9375 69.238281 231.492188 68.554688 Z M 231.492188 66.609375 "/>
</g>
</svg>
